<?xml version="1.0" standalone="no"?><svg xmlns:xlink="http://www.w3.org/1999/xlink" xmlns="http://www.w3.org/2000/svg" viewBox="0 0 1000 750.0075567512016" preserveAspectRatio="xMaxYMax slice"><g transform="scale(1.8891878003808604)"><rect x="0" y="0" width="529.3333333333334" height="397" fill="#ffffff"/><path d="M 0 264.66 A 132.33 132.33 0 0 1  132.33 132.33 L 0 264.66 A 132.33 132.33 0 0 0 132.33 132.33" fill="#ededed"/><rect x="132.33333333333334" y="132.33333333333334" width="132.33333333333334" height="132.33333333333334" fill="#ffffff"/><path d="M 132.33 132.33 A 66.17 66.17 0 0 1  198.5 198.5 L 132.33 132.33 A 66.17 66.17 0 0 0 198.5 198.5" fill="#ffffff"/><path d="M 198.5 132.33 A 66.17 66.17 0 0 1  264.67 198.5 L 198.5 132.33 A 66.17 66.17 0 0 0 264.67 198.5" fill="#f0f0f0"/><path d="M 132.33 198.5 A 66.17 66.17 0 0 1  198.5 264.67 L 132.33 198.5 A 66.17 66.17 0 0 0 198.5 264.67" fill="#f2f2f2"/><path d="M 132.33 264.67 A 132.33 132.33 0 0 1  264.66 397 L 132.33 264.67 A 132.33 132.33 0 0 0 264.66 397" fill="#f1f1f1"/><rect x="264.6666666666667" y="264.6666666666667" width="132.33333333333334" height="132.33333333333334" fill="#ffffff"/><path d="M 264.67 264.67 A 66.17 66.17 0 0 1  330.84000000000003 330.84000000000003 L 264.67 264.67 A 66.17 66.17 0 0 0 330.84000000000003 330.84000000000003" fill="#eeeeee"/><path d="M 330.83 264.67 A 66.17 66.17 0 0 1  397 330.84000000000003 L 330.83 264.67 A 66.17 66.17 0 0 0 397 330.84000000000003" fill="#fbfbfb"/><path d="M 264.67 330.83 A 66.17 66.17 0 0 1  330.84000000000003 397 L 264.67 330.83 A 66.17 66.17 0 0 0 330.84000000000003 397" fill="#ffffff"/><path d="M 330.83 397 A 66.17 66.17 0 0 1  397 330.83 L 330.83 397 A 66.17 66.17 0 0 0 397 330.83" fill="#fefefe"/><rect x="397" y="264.6666666666667" width="132.33333333333334" height="132.33333333333334" fill="#ffffff"/><path d="M 397 264.67 A 66.17 66.17 0 0 1  463.17 330.84000000000003 L 397 264.67 A 66.17 66.17 0 0 0 463.17 330.84000000000003" fill="#ffffff"/><path d="M 463.17 264.67 A 66.17 66.17 0 0 1  529.34 330.84000000000003 L 463.17 264.67 A 66.17 66.17 0 0 0 529.34 330.84000000000003" fill="#f8f8f8"/><path d="M 397 397 A 66.17 66.17 0 0 1  463.17 330.83 L 397 397 A 66.17 66.17 0 0 0 463.17 330.83" fill="#fafafa"/></g></svg>