<?xml version="1.0" standalone="no"?><svg xmlns:xlink="http://www.w3.org/1999/xlink" xmlns="http://www.w3.org/2000/svg" viewBox="0 0 1000 499.99999999999994" preserveAspectRatio="xMaxYMax slice"><g transform="scale(1.2594458438287153)"><rect x="0" y="0" width="794" height="397" fill="#ffffff"/><rect x="0" y="0" width="198.5" height="198.5" fill="#007AFF"/><polygon points="0,0 198.5,0 0,198.5" fill="#005EC2"/><rect x="198.5" y="0" width="198.5" height="198.5" fill="#ffffff"/><rect x="198.5" y="0" width="99.25" height="99.25" fill="#005EC2"/><circle cx="248.125" cy="49.625" r="49.625" fill="#007AFF"/><rect x="297.75" y="0" width="99.25" height="99.25" fill="#005EC2"/><rect x="297.75" y="0" width="99.25" height="99.25" fill="#005EC2"/><rect x="198.5" y="99.25" width="99.25" height="99.25" fill="#0070E8"/><circle cx="248.125" cy="148.875" r="49.625" fill="#0070E8"/><rect x="297.75" y="99.25" width="99.25" height="99.25" fill="#007AFF"/><rect x="297.75" y="99.25" width="99.25" height="99.25" fill="#005EC2"/><rect x="397" y="0" width="198.5" height="198.5" fill="#ffffff"/><rect x="397" y="0" width="99.25" height="99.25" fill="#0070E8"/><path d="M 397 0 A 99.25 99.25 0 0 1 496.25 99.25 L 397 99.25" fill="#0070E8"/><rect x="496.25" y="0" width="99.25" height="99.25" fill="#005EC2"/><path d="M 496.25 99.25 A 99.25 99.25 0 0 1  595.5 0 L 595.5 99.25" fill="#005EC2"/><rect x="397" y="99.25" width="99.25" height="99.25" fill="#007AFF"/><path d="M 397 198.5 A 99.25 99.25 0 0 0 496.25 99.25 L 397 99.25" fill="#0070E8"/><rect x="496.25" y="99.25" width="99.25" height="99.25" fill="#007AFF"/><path d="M 496.25 99.25 A 99.25 99.25 0 0 0 595.5 198.5 L 595.5 99.25" fill="#005EC2"/><rect x="595.5" y="0" width="198.5" height="198.5" fill="#ffffff"/><rect x="595.5" y="0" width="99.25" height="99.25" fill="#007AFF"/><path d="M 595.5 0 A 99.25 99.25 0 0 0 694.75 99.25 L 694.75 0" fill="#0070E8"/><rect x="694.75" y="0" width="99.25" height="99.25" fill="#007AFF"/><path d="M 694.75 99.25 A 99.25 99.25 0 0 0 794 0 L 694.75 0" fill="#0070E8"/><rect x="595.5" y="99.25" width="99.25" height="99.25" fill="#007AFF"/><path d="M 595.5 198.5 A 99.25 99.25 0 0 1  694.75 99.25 L 694.75 198.5" fill="#005EC2"/><rect x="694.75" y="99.25" width="99.25" height="99.25" fill="#007AFF"/><path d="M 694.75 99.25 A 99.25 99.25 0 0 1 794 198.5 L 694.75 198.5" fill="#0070E8"/><rect x="0" y="198.5" width="198.5" height="198.5" fill="#ffffff"/><rect x="0" y="198.5" width="99.25" height="99.25" fill="#0070E8"/><path d="M 0 198.5 A 99.25 99.25 0 0 1 99.25 297.75 L 0 297.75" fill="#007AFF"/><rect x="99.25" y="198.5" width="99.25" height="99.25" fill="#007AFF"/><path d="M 99.25 297.75 A 99.25 99.25 0 0 1  198.5 198.5 L 198.5 297.75" fill="#007AFF"/><rect x="0" y="297.75" width="99.25" height="99.25" fill="#0070E8"/><path d="M 0 397 A 99.25 99.25 0 0 0 99.25 297.75 L 0 297.75" fill="#007AFF"/><rect x="99.25" y="297.75" width="99.25" height="99.25" fill="#0070E8"/><path d="M 99.25 297.75 A 99.25 99.25 0 0 0 198.5 397 L 198.5 297.75" fill="#0070E8"/><rect x="198.5" y="198.5" width="198.5" height="198.5" fill="#ffffff"/><rect x="198.5" y="198.5" width="99.25" height="99.25" fill="#007AFF"/><path d="M 198.5 297.75 A 99.25 99.25 0 0 1  297.75 198.5 L 297.75 297.75" fill="#007AFF"/><rect x="297.75" y="198.5" width="99.25" height="99.25" fill="#007AFF"/><path d="M 297.75 198.5 A 99.25 99.25 0 0 1 397 297.75 L 297.75 297.75" fill="#0070E8"/><rect x="198.5" y="297.75" width="99.25" height="99.25" fill="#0070E8"/><path d="M 198.5 297.75 A 99.25 99.25 0 0 0 297.75 397 L 297.75 297.75" fill="#0070E8"/><rect x="297.75" y="297.75" width="99.25" height="99.25" fill="#0070E8"/><path d="M 297.75 397 A 99.25 99.25 0 0 0 397 297.75 L 297.75 297.75" fill="#005EC2"/><rect x="397" y="198.5" width="198.5" height="198.5" fill="#ffffff"/><rect x="397" y="198.5" width="99.25" height="99.25" fill="#007AFF"/><path d="M 397 198.5 A 99.25 99.25 0 0 1 496.25 297.75 L 397 297.75" fill="#0070E8"/><rect x="496.25" y="198.5" width="99.25" height="99.25" fill="#0070E8"/><path d="M 496.25 297.75 A 99.25 99.25 0 0 1  595.5 198.5 L 595.5 297.75" fill="#0070E8"/><rect x="397" y="297.75" width="99.25" height="99.25" fill="#0070E8"/><path d="M 397 397 A 99.25 99.25 0 0 0 496.25 297.75 L 397 297.75" fill="#0070E8"/><rect x="496.25" y="297.75" width="99.25" height="99.25" fill="#005EC2"/><path d="M 496.25 297.75 A 99.25 99.25 0 0 0 595.5 397 L 595.5 297.75" fill="#007AFF"/><rect x="595.5" y="198.5" width="198.5" height="198.5" fill="#ffffff"/><rect x="595.5" y="198.5" width="99.25" height="99.25" fill="#0070E8"/><path d="M 595.5 297.75 A 99.25 99.25 0 0 1 694.75 198.5 L 694.75 223.3125 A 74.4375 74.4375 0 0 0 620.3125 297.75" fill="#0070E8"/><rect x="694.75" y="198.5" width="99.25" height="99.25" fill="#0070E8"/><path d="M 694.75 198.5 A 99.25 99.25 0 0 1 794 297.75 L 769.1875 297.75 A 74.4375 74.4375 0 0 0 694.75 223.3125" fill="#007AFF"/><rect x="595.5" y="297.75" width="99.25" height="99.25" fill="#007AFF"/><path d="M 595.5 297.75 A 99.25 99.25 0 0 0 694.75 397 L 694.75 372.1875 A 74.4375 74.4375 0 0 1 620.3125 297.75" fill="#0070E8"/><rect x="694.75" y="297.75" width="99.25" height="99.25" fill="#0070E8"/><path d="M 694.75 397 A 99.25 99.25 0 0 0 794 297.75 L 769.1875 297.75 A 74.4375 74.4375 0 0 1 694.75 372.1875" fill="#0070E8"/></g></svg>