<svg id="visual" viewBox="0 0 900 600" width="900" height="600" xmlns="http://www.w3.org/2000/svg" xmlns:xlink="http://www.w3.org/1999/xlink" version="1.1"><rect x="0" y="0" width="900" height="600" fill="#04001e"></rect><g fill="#06002d"><circle r="52" cx="794" cy="424"></circle><circle r="4" cx="452" cy="241"></circle><circle r="30" cx="97" cy="138"></circle><circle r="25" cx="559" cy="385"></circle><circle r="46" cx="194" cy="566"></circle><circle r="13" cx="282" cy="200"></circle><circle r="21" cx="812" cy="71"></circle><circle r="34" cx="377" cy="334"></circle><circle r="20" cx="801" cy="241"></circle><circle r="44" cx="109" cy="6"></circle><circle r="24" cx="208" cy="317"></circle><circle r="22" cx="475" cy="495"></circle><circle r="34" cx="661" cy="508"></circle><circle r="36" cx="816" cy="554"></circle><circle r="11" cx="372" cy="571"></circle><circle r="23" cx="57" cy="506"></circle><circle r="46" cx="577" cy="10"></circle><circle r="24" cx="330" cy="477"></circle><circle r="40" cx="694" cy="273"></circle><circle r="39" cx="235" cy="19"></circle><circle r="23" cx="552" cy="569"></circle><circle r="11" cx="387" cy="123"></circle><circle r="42" cx="42" cy="378"></circle><circle r="5" cx="700" cy="94"></circle><circle r="11" cx="147" cy="409"></circle><circle r="13" cx="397" cy="2"></circle><circle r="28" cx="170" cy="222"></circle><circle r="40" cx="568" cy="209"></circle><circle r="45" cx="668" cy="385"></circle><circle r="8" cx="43" cy="268"></circle><circle r="9" cx="485" cy="86"></circle><circle r="23" cx="881" cy="330"></circle><circle r="29" cx="893" cy="158"></circle><circle r="10" cx="897" cy="456"></circle><circle r="24" cx="3" cy="40"></circle><circle r="7" cx="200" cy="123"></circle></g></svg>