<?xml version="1.0" standalone="no"?><svg xmlns:xlink="http://www.w3.org/1999/xlink" xmlns="http://www.w3.org/2000/svg" viewBox="0 0 1000 499.99999999999994" preserveAspectRatio="xMaxYMax slice"><g transform="scale(1.2594458438287153)"><rect x="0" y="0" width="794" height="397" fill="#ffffff"/><rect x="0" y="0" width="397" height="397" fill="#ffffff"/><rect x="0" y="0" width="198.5" height="198.5" fill="#96a7c0"/><path d="M 0 198.5 A 198.5 198.5 0 0 1 198.5 0 L 198.5 49.625 A 148.875 148.875 0 0 0 49.625 198.5" fill="#d8dee8"/><rect x="198.5" y="0" width="198.5" height="198.5" fill="#b8c4d5"/><path d="M 198.5 0 A 198.5 198.5 0 0 1 397 198.5 L 347.375 198.5 A 148.875 148.875 0 0 0 198.5 49.625" fill="#d7dde7"/><rect x="0" y="198.5" width="198.5" height="198.5" fill="#5f6da4"/><path d="M 0 198.5 A 198.5 198.5 0 0 0 198.5 397 L 198.5 347.375 A 148.875 148.875 0 0 1 49.625 198.5" fill="#b7c2d3"/><rect x="198.5" y="198.5" width="198.5" height="198.5" fill="#f8f9fb"/><path d="M 198.5 397 A 198.5 198.5 0 0 0 397 198.5 L 347.375 198.5 A 148.875 148.875 0 0 1 198.5 347.375" fill="#a5aecc"/><rect x="397" y="0" width="397" height="397" fill="#ffffff"/><rect x="397" y="0" width="198.5" height="198.5" fill="#d5d9e7"/><polygon points="595.5,0 595.5,198.5 397,198.5" fill="#e2e5ef"/><rect x="595.5" y="0" width="198.5" height="198.5" fill="#92a3bd"/><polygon points="595.5,0 794,198.5 595.5,198.5" fill="#475897"/><rect x="397" y="198.5" width="198.5" height="198.5" fill="#425394"/><polygon points="397,198.5 595.5,198.5 595.5,397" fill="#fafbfc"/><rect x="595.5" y="198.5" width="198.5" height="198.5" fill="#dfe2ed"/><polygon points="595.5,198.5 794,198.5 595.5,397" fill="#8994bc"/></g></svg>